# xmcd
#
# Track frame offsets:
#       150
#       15810
#       26797
#       36395
#       41150
#       52622
#       66270
#       81667
#       97027
#       108397
#       123577
#       139257
#       152207
#       170092
#       190055
#       205515
#
# Disc length: 2972 seconds
#
# Revision: 1
# Processed by: cddbd v1.5.2PL0 Copyright (c) Steve Scherf et al.
# Submitted via: MusiCat 1.1
#
DISCID=de0b9a10
DTITLE=Diverse Kunstnere - Soul Hits - Vol. 3
DYEAR=2000
DGENRE=
TTITLE0=Johnny Wakelin - Black superman
TTITLE1=Brook Benton - A rockin' good day
TTITLE2=The american breed - Bend me, shape me
TTITLE3=James Brown - Hot pants
TTITLE4=Martha Reeves and the Vandekkas - Heartwave
TTITLE5=George McCrae - I cant leave you alone
TTITLE6=Ben E.King - Supernatural thing
TTITLE7=Gladys Knight and the Pips - Best thing that ever happened to me
TTITLE8=Robert Knight - Love on a mountain top
TTITLE9=Nino Tempo and April Stevens - Love will keep up together
TTITLE10=Liz Lands - Like a raging fire
TTITLE11=Gallery - I Believe in music
TTITLE12=Jackie Wilson - I get the sweetest feeling
TTITLE13=Jean, Scherrie and Linda - Stoned Love
TTITLE14=Dobie Gray - Feelings
TTITLE15=Bobby Womack - Harry Hippy
EXTD=\n455\nOriginal
EXTT0=
EXTT1=
EXTT2=
EXTT3=
EXTT4=
EXTT5=
EXTT6=
EXTT7=
EXTT8=
EXTT9=
EXTT10=
EXTT11=
EXTT12=
EXTT13=
EXTT14=
EXTT15=
PLAYORDER=
